<svg width="24" height="24" viewBox="0 0 24 24" fill="none" xmlns="http://www.w3.org/2000/svg">
  <path d="M9 19c-5 1.5-5-2.5-7-3m14 6v-3.87a3.37 3.37 0 0 0-.94-2.61c3.14-.35 6.44-1.54 6.44-7A5.44 5.44 0 0 0 20 4.77a5.07 5.07 0 0 0-.41-1.91c0 0-.84-.29-2.75 1.05a9.43 9.43 0 0 0-5 0C10.6 2.57 9.75 2.86 9.75 2.86a5.07 5.07 0 0 0-.41 1.91A5.44 5.44 0 0 0 7 9.5c0 5.42 3.3 6.61 6.44 7a3.37 3.37 0 0 0-.94 2.61V22" stroke="currentColor" stroke-width="2" stroke-linecap="round" stroke-linejoin="round"/>
</svg>
